<svg xmlns="http://www.w3.org/2000/svg" viewBox="0 0 48 48" width="50" height="50"><path d="M24.001 4c-11.077 0-20 8.923-20 20s8.923 20 20 20c11.076 0 20-8.923 20-20s-8.924-20-20-20z" fill="#8bc34a"/><path d="M31.747 33.915c-.292 0-.585-.145-.877-.292-2.777-1.607-6.139-2.484-9.792-2.484-2.047 0-4.093.291-5.993.73-.292 0-.731.146-.877.146-.731 0-1.169-.586-1.169-1.17 0-.73.438-1.17 1.023-1.314a29.056 29.056 0 0 1 7.161-.877c4.093 0 7.893 1.021 11.108 2.924.438.291.731.584.731 1.314-.146.586-.731 1.023-1.315 1.023zm2.046-4.97c-.438 0-.73-.144-1.023-.291-3.068-1.9-7.308-3.071-12.13-3.071-2.339 0-4.531.293-6.139.733-.439.144-.585.144-.877.144-.877 0-1.462-.73-1.462-1.461 0-.877.439-1.316 1.169-1.607 2.192-.584 4.385-1.023 7.454-1.023 4.97 0 9.793 1.17 13.593 3.507.584.291.877.877.877 1.461 0 .878-.585 1.608-1.462 1.608zm2.339-5.844c-.438 0-.585-.146-1.023-.291-3.508-2.047-8.769-3.217-13.885-3.217-2.631 0-5.262.293-7.6.877-.293 0-.585.146-1.023.146-1.023.146-1.754-.73-1.754-1.754 0-1.023.585-1.607 1.315-1.754 2.777-.877 5.7-1.17 9.062-1.17 5.554 0 11.4 1.17 15.785 3.654.584.293 1.022.877 1.022 1.754-.145 1.023-.877 1.755-1.899 1.755z" fill="#fff"/></svg>