<svg height="655.359" viewBox="0 0 6.827 6.827" width="655.359" xmlns="http://www.w3.org/2000/svg" shape-rendering="geometricPrecision" text-rendering="geometricPrecision" image-rendering="optimizeQuality" fill-rule="evenodd" clip-rule="evenodd"><defs><style>.fil0{fill:#212121;fill-rule:nonzero}</style></defs><g id="Layer_x0020_1"><path class="fil0" d="M5.92 3.413c0 .693-.28 1.32-.734 1.773a2.499 2.499 0 0 1-1.773.734c-.692 0-1.319-.28-1.772-.734a2.499 2.499 0 0 1-.734-1.773c0-.692.28-1.319.734-1.772A2.499 2.499 0 0 1 3.413.907c.693 0 1.32.28 1.773.734a2.5 2.5 0 0 1 .734 1.772zM5.11 5.11a2.392 2.392 0 0 0 .703-1.697c0-.662-.268-1.262-.703-1.697a2.392 2.392 0 0 0-1.697-.703c-.662 0-1.262.269-1.697.703a2.393 2.393 0 0 0-.703 1.697c0 .663.269 1.263.703 1.697a2.392 2.392 0 0 0 1.697.703c.663 0 1.263-.268 1.697-.703z"/><path class="fil0" d="M5.26 2.933a.286.286 0 0 1-.14.244.28.28 0 0 1-.283 0 3.048 3.048 0 0 0-.32-.156 3.08 3.08 0 0 0-.336-.113 3.88 3.88 0 0 0-.592-.112 4.404 4.404 0 0 0-.765-.025 4.248 4.248 0 0 0-.295.025 3.214 3.214 0 0 0-.29.049c-.063.013-.125.03-.187.046l-.026.007a.317.317 0 0 1-.078.011.28.28 0 0 1-.095-.545 1.93 1.93 0 0 1 .216-.058 3.52 3.52 0 0 1 .54-.083 4.763 4.763 0 0 1 .577-.018c.238.007.473.028.705.066.232.039.462.095.688.174a3.175 3.175 0 0 1 .533.242.273.273 0 0 1 .14.185.917.917 0 0 0 .007.054v.007zm-.13.088a.18.18 0 0 0 .023-.085.552.552 0 0 1-.005-.04.168.168 0 0 0-.031-.068.2.2 0 0 0-.058-.05 2.724 2.724 0 0 0-.514-.233 4.113 4.113 0 0 0-.671-.169 5.108 5.108 0 0 0-1.256-.047 4.547 4.547 0 0 0-.526.08 3.27 3.27 0 0 0-.206.057.165.165 0 0 0-.084.063.177.177 0 0 0 .095.267.17.17 0 0 0 .05.007.211.211 0 0 0 .052-.008l.026-.007a3.323 3.323 0 0 1 .492-.098 4.36 4.36 0 0 1 .566-.031 4.86 4.86 0 0 1 .769.068c.119.02.238.047.356.079a3.188 3.188 0 0 1 .518.192c.056.027.11.056.164.086a.174.174 0 0 0 .24-.064z"/><path class="fil0" d="M2.986 3.534c-.143 0-.287.01-.431.03a2.761 2.761 0 0 0-.402.087.28.28 0 0 1-.084.012.24.24 0 0 1-.238-.249.248.248 0 0 1 .048-.14.232.232 0 0 1 .119-.083 3.147 3.147 0 0 1 .549-.116 3.83 3.83 0 0 1 1.608.152 3.107 3.107 0 0 1 .614.274l.028.016.001.001c.06.037.095.091.11.149a.248.248 0 0 1-.028.185.24.24 0 0 1-.149.11.25.25 0 0 1-.183-.027l-.042-.024a2.6 2.6 0 0 0-.49-.218 3.16 3.16 0 0 0-.706-.144 3.68 3.68 0 0 0-.324-.015zm-.446-.075c.149-.021.298-.031.445-.032a3.784 3.784 0 0 1 .657.061 3.153 3.153 0 0 1 .797.264c.04.021.08.044.12.067l.04.023c.035.02.073.024.107.016a.134.134 0 0 0 .083-.061.14.14 0 0 0 .015-.105.133.133 0 0 0-.061-.083H4.74l-.026-.017a2.748 2.748 0 0 0-.592-.264A3.628 3.628 0 0 0 2.56 3.18a3.092 3.092 0 0 0-.531.113.126.126 0 0 0-.065.045.141.141 0 0 0-.027.08.136.136 0 0 0 .133.139.177.177 0 0 0 .053-.008 2.9 2.9 0 0 1 .417-.09zm.49.384c.164.002.326.014.486.038a2.828 2.828 0 0 1 .727.215c.083.038.163.08.241.126l.004.003a.397.397 0 0 1 .04.026.204.204 0 0 1 .052.268.202.202 0 0 1-.258.082c-.014-.006-.027-.014-.04-.022l-.006-.003a2.184 2.184 0 0 0-.395-.184 2.372 2.372 0 0 0-.423-.104 2.785 2.785 0 0 0-.541-.03 3.715 3.715 0 0 0-.699.092.629.629 0 0 1-.082.012.2.2 0 0 1-.199-.164.21.21 0 0 1 .02-.136.2.2 0 0 1 .13-.101 4.841 4.841 0 0 1 .61-.1 6.562 6.562 0 0 1 .33-.018h.003zm.47.143a3.318 3.318 0 0 0-.468-.037l-.102.005a3.835 3.835 0 0 0-.815.109.152.152 0 0 0-.015.006.094.094 0 0 0-.049.043.104.104 0 0 0-.01.068.093.093 0 0 0 .094.076.532.532 0 0 0 .06-.009 4.32 4.32 0 0 1 .717-.096 2.996 2.996 0 0 1 .561.031 2.453 2.453 0 0 1 .857.302l.007.004.028.015a.098.098 0 0 0 .123-.038.098.098 0 0 0-.024-.13.355.355 0 0 0-.03-.019l-.004-.002a2.426 2.426 0 0 0-.473-.217 2.722 2.722 0 0 0-.457-.11z"/></g><path fill="none" d="M0 0h6.827v6.827H0z"/></svg>